<?xml version="1.0" encoding="UTF-8" standalone="no"?>
<svg
   width="250"
   height="250"
   version="1.1"
   id="svg17"
   sodipodi:docname="favicon_b.svg"
   inkscape:version="1.1.2 (0a00cf5339, 2022-02-04, custom)"
   xmlns:inkscape="http://www.inkscape.org/namespaces/inkscape"
   xmlns:sodipodi="http://sodipodi.sourceforge.net/DTD/sodipodi-0.dtd"
   xmlns="http://www.w3.org/2000/svg"
   xmlns:svg="http://www.w3.org/2000/svg">
  <sodipodi:namedview
     id="namedview19"
     pagecolor="#ffffff"
     bordercolor="#666666"
     borderopacity="1.0"
     inkscape:pageshadow="2"
     inkscape:pageopacity="0"
     inkscape:pagecheckerboard="0"
     showgrid="false"
     inkscape:zoom="2.8284272"
     inkscape:cx="131.34508"
     inkscape:cy="128.87021"
     inkscape:window-width="1920"
     inkscape:window-height="1024"
     inkscape:window-x="0"
     inkscape:window-y="0"
     inkscape:window-maximized="1"
     inkscape:current-layer="svg17" />
  <defs
     id="defs5">
    <filter
       id="f"
       x="-0.036020584"
       y="-0.036020584"
       width="1.0720412"
       height="1.0720412">
      <feGaussianBlur
         stdDeviation="3.5"
         id="feGaussianBlur2" />
    </filter>
  </defs>
  <path
     style="fill:#8a2be2;fill-opacity:1"
     d="m 91.257812,130.125 -74.1875,0.27539 c 0.08695,1.76002 0.115379,3.53482 0.285157,5.27149 0.113113,1.13523 0.301454,2.26916 0.451172,3.40429 0.278995,2.14794 0.593389,4.28453 0.996093,6.39063 0.318195,1.64392 0.704424,3.28335 1.101563,4.92187 0.366823,1.52642 0.75296,3.04466 1.183594,4.54492 0.549121,1.90161 1.15569,3.79597 1.814453,5.6836 0.430352,1.23564 0.88404,2.45917 1.357422,3.67383 0.754712,1.93579 1.551806,3.84458 2.40625,5.71484 0.546592,1.19385 1.126597,2.36719 1.714843,3.53711 0.885323,1.76552 1.79322,3.51397 2.765625,5.21484 0.729501,1.2721 1.510048,2.50923 2.289063,3.74805 0.950971,1.51634 1.898723,3.0353 2.917969,4.49414 0.978479,1.39733 2.030475,2.73628 3.072265,4.08398 0.951291,1.23241 1.873095,2.4921 2.873047,3.67774 1.3099,1.55175 2.713531,3.01721 4.107422,4.49219 0.863869,0.91405 1.680871,1.8783 2.574219,2.75976 2.272963,2.24366 4.643637,4.38748 7.107422,6.42383 1.051412,0.86785 2.173742,1.63828 3.255859,2.46484 1.502912,1.14983 2.993038,2.31548 4.556641,3.38672 1.368255,0.93589 2.794178,1.7806 4.203125,2.65235 1.351237,0.83725 2.693918,1.68633 4.083984,2.46484 1.515148,0.84766 3.070389,1.62032 4.625,2.39453 0.947516,0.47205 1.904089,0.92628 2.867188,1.3711 -10.072052,-10.97081 -16.279297,-25.54366 -16.279297,-41.57227 0,-21.50757 11.101935,-40.45274 27.857421,-51.47461 z"
     id="path2005" />
  <path
     style="fill:#8a2be2;fill-opacity:1"
     d="m 170.31445,26.822266 c 10.07537,10.971482 16.28516,25.546544 16.28516,41.578125 0,33.954869 -27.62765,61.586859 -61.58008,61.597659 -0.007,0 -0.0125,0.002 -0.0195,0.002 h -0.002 c -28.556204,0.001 -51.597659,23.04318 -51.597659,51.59961 0,26.77227 20.252564,48.69784 46.314449,51.33398 0.0306,0.002 0.0612,0.003 0.0918,0.004 1.76506,0.0837 3.50667,0.25786 5.29297,0.25586 1.89226,-0.002 3.73732,-0.18385 5.60547,-0.28125 1.5428,-0.0805 3.10207,-0.096 4.62695,-0.24023 1.45483,-0.14069 2.91466,-0.38325 4.37305,-0.58399 0.59305,-0.0806 1.17959,-0.17943 1.76953,-0.26953 1.26642,-0.19351 2.54541,-0.34707 3.79687,-0.58398 1.7939,-0.34215 3.55246,-0.76815 5.31055,-1.19532 0.60941,-0.14768 1.21305,-0.30886 1.81836,-0.46679 0.89276,-0.23294 1.79612,-0.43839 2.67969,-0.69336 1.77159,-0.51149 3.51224,-1.08526 5.24219,-1.68164 0.68823,-0.23749 1.36504,-0.49716 2.04687,-0.74805 0.7617,-0.28027 1.53165,-0.54305 2.28516,-0.83984 1.65217,-0.64987 3.28383,-1.33628 4.89258,-2.0625 0.83637,-0.37819 1.65173,-0.79274 2.47656,-1.19141 0.60733,-0.29354 1.22134,-0.57442 1.82226,-0.87891 1.51197,-0.76496 3.01631,-1.54128 4.48438,-2.37304 1.23522,-0.70084 2.43055,-1.45961 3.63476,-2.20704 0.2085,-0.1294 0.42136,-0.25202 0.62891,-0.38281 0.008,-0.005 0.0174,-0.0106 0.0254,-0.0156 1.3546,-0.85325 2.71771,-1.69354 4.0293,-2.60352 1.15357,-0.80098 2.24891,-1.67538 3.36914,-2.51953 0.30508,-0.22989 0.61542,-0.45251 0.91797,-0.68555 0.0235,-0.0181 0.0468,-0.0366 0.0703,-0.0547 1.16056,-0.89513 2.35131,-1.75541 3.47266,-2.69532 0.89924,-0.75385 1.72955,-1.583 2.60351,-2.36523 0.73855,-0.66104 1.47724,-1.32111 2.19727,-2.00195 0.81228,-0.7683 1.67721,-1.48284 2.46484,-2.27539 0.008,-0.008 0.0154,-0.0174 0.0234,-0.0254 1.05838,-1.06524 2.01578,-2.22557 3.0293,-3.33398 1.11781,-1.22246 2.27655,-2.40663 3.33789,-3.67969 0.96421,-1.15741 1.83659,-2.38718 2.75195,-3.58398 0.0187,-0.0244 0.036,-0.0498 0.0547,-0.0742 0.28127,-0.36812 0.5554,-0.74146 0.83203,-1.11328 0.75719,-1.01776 1.5536,-2.00393 2.27539,-3.04883 0.92027,-1.33327 1.75868,-2.72297 2.61914,-4.09766 0.007,-0.0104 0.0125,-0.0208 0.0195,-0.0312 0.21488,-0.34334 0.41974,-0.69314 0.63086,-1.03906 0.64336,-1.05415 1.31203,-2.09042 1.91992,-3.16797 0.81967,-1.45362 1.57514,-2.9444 2.32813,-4.4375 0.006,-0.0117 0.0116,-0.0234 0.0176,-0.0352 0.46272,-0.91826 0.9008,-1.85014 1.3379,-2.78321 0.24656,-0.52632 0.51561,-1.03939 0.7539,-1.57031 0.683,-1.52142 1.32399,-3.06478 1.9375,-4.62109 0.44013,-1.11743 0.83656,-2.2553 1.24024,-3.39063 0.16317,-0.45892 0.34286,-0.90933 0.5,-1.37109 0.002,-0.007 0.006,-0.0125 0.008,-0.0195 0.51928,-1.52485 1.02251,-3.05629 1.47461,-4.60938 0.50839,-1.75034 0.94398,-3.53049 1.36523,-5.3164 0,0 0.002,-0.002 0.002,-0.002 0.34934,-1.47677 0.71397,-2.94735 1.00196,-4.44531 0.24885,-1.2995 0.39956,-2.6316 0.60156,-3.94727 0.12073,-0.7863 0.25564,-1.56756 0.35938,-2.35937 0.002,-0.017 0.006,-0.0338 0.008,-0.0508 0.16333,-1.24501 0.38145,-2.47367 0.50195,-3.73047 2.5e-4,-0.003 -2.4e-4,-0.005 0,-0.008 0.32628,-3.42664 0.52344,-6.89131 0.52344,-10.4043 0,-27.936074 -10.64383,-53.293928 -27.98633,-72.478516 -1.44372,-1.59843 -2.87918,-3.208397 -4.39844,-4.703125 -0.93774,-0.921185 -1.94724,-1.76562 -2.91797,-2.652343 -1.46861,-1.343026 -2.91326,-2.72231 -4.4414,-3.972657 -2.01101,-1.643932 -4.1181,-3.169893 -6.2461,-4.667968 -0.47369,-0.333427 -0.91829,-0.717783 -1.39648,-1.042969 -1.27462,-0.866795 -2.61092,-1.611914 -3.91602,-2.419922 -1.49407,-0.925813 -2.96632,-1.882432 -4.50781,-2.736328 -1.44959,-0.802208 -2.94569,-1.496252 -4.42578,-2.228516 -0.87746,-0.434642 -1.75764,-0.864048 -2.64844,-1.27539 z"
     id="path2003" />
  <path
     id="circle9-36"
     style="fill:#8a2be2;fill-opacity:1"
     d="M 124.48242 16.78125 C 105.92184 16.864604 87.209485 21.72329 70.246094 31.675781 C 37.71784 50.760245 18.505595 84.605964 16.976562 120.40234 L 124.98047 120 L 125 120 C 153.55711 120 176.59961 96.957436 176.59961 68.400391 C 176.59961 41.628117 156.34705 19.70255 130.28516 17.066406 C 128.55734 16.891634 126.80398 16.803727 125.0293 16.802734 C 125.0193 16.802634 125.01 16.800781 125 16.800781 C 124.82709 16.800731 124.65536 16.78047 124.48242 16.78125 z M 65 65.800781 C 77.4224 65.800781 87.599609 75.977991 87.599609 88.400391 C 87.599609 100.82279 77.4224 111 65 111 C 52.5776 111 42.400391 100.82279 42.400391 88.400391 C 42.400391 75.977991 52.5776 65.800781 65 65.800781 z M 65 75.800781 C 57.981996 75.800781 52.400391 81.382386 52.400391 88.400391 C 52.400391 95.418395 57.981996 101 65 101 C 72.018004 101 77.599609 95.418395 77.599609 88.400391 C 77.599609 81.382386 72.018004 75.800781 65 75.800781 z " />
</svg>
